# Tiled2Unity generated file. Do not modify by hand.
# Wavefront file for 'Juego_RPG_Mapa3_mesh_0002.obj'

# Vertices (Count = 160)
v -2.666667 -4 0
v -4 -4 0
v -4 -2.666667 0
v -2.666667 -2.666667 0
v -2.666667 -5.333333 0
v -4 -5.333333 0
v -4 -4 0
v -2.666667 -4 0
v -2.666667 -6.666667 0
v -4 -6.666667 0
v -4 -5.333333 0
v -2.666667 -5.333333 0
v -2.666667 -8 0
v -4 -8 0
v -4 -6.666667 0
v -2.666667 -6.666667 0
v -2.666667 -9.333334 0
v -4 -9.333334 0
v -4 -8 0
v -2.666667 -8 0
v -2.666667 -10.66667 0
v -4 -10.66667 0
v -4 -9.333334 0
v -2.666667 -9.333334 0
v -2.666667 -12 0
v -4 -12 0
v -4 -10.66667 0
v -2.666667 -10.66667 0
v -2.666667 -13.33333 0
v -4 -13.33333 0
v -4 -12 0
v -2.666667 -12 0
v -2.666667 -14.66667 0
v -4 -14.66667 0
v -4 -13.33333 0
v -2.666667 -13.33333 0
v -22.66667 -14.66667 0
v -24 -14.66667 0
v -24 -13.33333 0
v -22.66667 -13.33333 0
v -2.666667 -16 0
v -4 -16 0
v -4 -14.66667 0
v -2.666667 -14.66667 0
v -13.33333 -16 0
v -14.66667 -16 0
v -14.66667 -14.66667 0
v -13.33333 -14.66667 0
v -18.66667 -16 0
v -20 -16 0
v -20 -14.66667 0
v -18.66667 -14.66667 0
v -22.66667 -16 0
v -24 -16 0
v -24 -14.66667 0
v -22.66667 -14.66667 0
v -2.666667 -17.33333 0
v -4 -17.33333 0
v -4 -16 0
v -2.666667 -16 0
v -4 -17.33333 0
v -5.333333 -17.33333 0
v -5.333333 -16 0
v -4 -16 0
v -5.333333 -17.33333 0
v -6.666667 -17.33333 0
v -6.666667 -16 0
v -5.333333 -16 0
v -6.666667 -17.33333 0
v -8 -17.33333 0
v -8 -16 0
v -6.666667 -16 0
v -8 -17.33333 0
v -9.333334 -17.33333 0
v -9.333334 -16 0
v -8 -16 0
v -9.333334 -17.33333 0
v -10.66667 -17.33333 0
v -10.66667 -16 0
v -9.333334 -16 0
v -10.66667 -17.33333 0
v -12 -17.33333 0
v -12 -16 0
v -10.66667 -16 0
v -12 -17.33333 0
v -13.33333 -17.33333 0
v -13.33333 -16 0
v -12 -16 0
v -13.33333 -17.33333 0
v -14.66667 -17.33333 0
v -14.66667 -16 0
v -13.33333 -16 0
v -18.66667 -17.33333 0
v -20 -17.33333 0
v -20 -16 0
v -18.66667 -16 0
v -20 -17.33333 0
v -21.33333 -17.33333 0
v -21.33333 -16 0
v -20 -16 0
v -21.33333 -17.33333 0
v -22.66667 -17.33333 0
v -22.66667 -16 0
v -21.33333 -16 0
v -22.66667 -17.33333 0
v -24 -17.33333 0
v -24 -16 0
v -22.66667 -16 0
v -2.666667 -18.66667 0
v -4 -18.66667 0
v -4 -17.33333 0
v -2.666667 -17.33333 0
v -4 -18.66667 0
v -5.333333 -18.66667 0
v -5.333333 -17.33333 0
v -4 -17.33333 0
v -5.333333 -18.66667 0
v -6.666667 -18.66667 0
v -6.666667 -17.33333 0
v -5.333333 -17.33333 0
v -6.666667 -18.66667 0
v -8 -18.66667 0
v -8 -17.33333 0
v -6.666667 -17.33333 0
v -8 -18.66667 0
v -9.333334 -18.66667 0
v -9.333334 -17.33333 0
v -8 -17.33333 0
v -9.333334 -18.66667 0
v -10.66667 -18.66667 0
v -10.66667 -17.33333 0
v -9.333334 -17.33333 0
v -10.66667 -18.66667 0
v -12 -18.66667 0
v -12 -17.33333 0
v -10.66667 -17.33333 0
v -12 -18.66667 0
v -13.33333 -18.66667 0
v -13.33333 -17.33333 0
v -12 -17.33333 0
v -13.33333 -18.66667 0
v -14.66667 -18.66667 0
v -14.66667 -17.33333 0
v -13.33333 -17.33333 0
v -18.66667 -18.66667 0
v -20 -18.66667 0
v -20 -17.33333 0
v -18.66667 -17.33333 0
v -20 -18.66667 0
v -21.33333 -18.66667 0
v -21.33333 -17.33333 0
v -20 -17.33333 0
v -21.33333 -18.66667 0
v -22.66667 -18.66667 0
v -22.66667 -17.33333 0
v -21.33333 -17.33333 0
v -22.66667 -18.66667 0
v -24 -18.66667 0
v -24 -17.33333 0
v -22.66667 -17.33333 0

# Texture cooridinates (Count = 24)
vt 0.1 0.7222222
vt 0.125 0.7222222
vt 0.125 0.75
vt 0.1 0.75
vt 0.1 0.6944444
vt 0.125 0.6944444
vt 0.15 0.7222222
vt 0.175 0.7222222
vt 0.175 0.75
vt 0.15 0.75
vt 0.15 0.6944444
vt 0.175 0.6944444
vt 0.1 0.6666667
vt 0.125 0.6666667
vt 0.15 0.6666667
vt 0.175 0.6666667
vt 0.1 0.5833333
vt 0.125 0.5833333
vt 0.125 0.6111111
vt 0.1 0.6111111
vt 0.15 0.5833333
vt 0.15 0.6111111
vt 0.175 0.5833333
vt 0.175 0.6111111

# Normal
vn 0 0 -1

# Mesh description
g Juego_RPG_Mapa3_mesh_0002

# Faces
f 1/1/1 2/2/1 3/3/1 4/4/1
f 5/5/1 6/6/1 7/2/1 8/1/1
f 9/5/1 10/6/1 11/2/1 12/1/1
f 13/5/1 14/6/1 15/2/1 16/1/1
f 17/5/1 18/6/1 19/2/1 20/1/1
f 21/5/1 22/6/1 23/2/1 24/1/1
f 25/5/1 26/6/1 27/2/1 28/1/1
f 29/5/1 30/6/1 31/2/1 32/1/1
f 33/5/1 34/6/1 35/2/1 36/1/1
f 37/7/1 38/8/1 39/9/1 40/10/1
f 41/5/1 42/6/1 43/2/1 44/1/1
f 45/7/1 46/8/1 47/9/1 48/10/1
f 49/1/1 50/2/1 51/3/1 52/4/1
f 53/11/1 54/12/1 55/8/1 56/7/1
f 57/13/1 58/14/1 59/6/1 60/5/1
f 61/14/1 62/15/1 63/11/1 64/6/1
f 65/14/1 66/15/1 67/11/1 68/6/1
f 69/14/1 70/15/1 71/11/1 72/6/1
f 73/14/1 74/15/1 75/11/1 76/6/1
f 77/14/1 78/15/1 79/11/1 80/6/1
f 81/14/1 82/15/1 83/11/1 84/6/1
f 85/14/1 86/15/1 87/11/1 88/6/1
f 89/15/1 90/16/1 91/12/1 92/11/1
f 93/13/1 94/14/1 95/6/1 96/5/1
f 97/14/1 98/15/1 99/11/1 100/6/1
f 101/14/1 102/15/1 103/11/1 104/6/1
f 105/15/1 106/16/1 107/12/1 108/11/1
f 109/17/1 110/18/1 111/19/1 112/20/1
f 113/18/1 114/21/1 115/22/1 116/19/1
f 117/18/1 118/21/1 119/22/1 120/19/1
f 121/18/1 122/21/1 123/22/1 124/19/1
f 125/18/1 126/21/1 127/22/1 128/19/1
f 129/18/1 130/21/1 131/22/1 132/19/1
f 133/18/1 134/21/1 135/22/1 136/19/1
f 137/18/1 138/21/1 139/22/1 140/19/1
f 141/21/1 142/23/1 143/24/1 144/22/1
f 145/17/1 146/18/1 147/19/1 148/20/1
f 149/18/1 150/21/1 151/22/1 152/19/1
f 153/18/1 154/21/1 155/22/1 156/19/1
f 157/21/1 158/23/1 159/24/1 160/22/1

