# Tiled2Unity generated file. Do not modify by hand.
# Wavefront file for 'Juego_RPG_Mapa3_mesh_0004.obj'

# Vertices (Count = 280)
v -14.66667 -4 0
v -16 -4 0
v -16 -2.666667 0
v -14.66667 -2.666667 0
v -16 -4 0
v -17.33333 -4 0
v -17.33333 -2.666667 0
v -16 -2.666667 0
v -17.33333 -4 0
v -18.66667 -4 0
v -18.66667 -2.666667 0
v -17.33333 -2.666667 0
v -10.66667 -5.333333 0
v -12 -5.333333 0
v -12 -4 0
v -10.66667 -4 0
v -12 -5.333333 0
v -13.33333 -5.333333 0
v -13.33333 -4 0
v -12 -4 0
v -13.33333 -5.333333 0
v -14.66667 -5.333333 0
v -14.66667 -4 0
v -13.33333 -4 0
v -14.66667 -5.333333 0
v -16 -5.333333 0
v -16 -4 0
v -14.66667 -4 0
v -16 -5.333333 0
v -17.33333 -5.333333 0
v -17.33333 -4 0
v -16 -4 0
v -17.33333 -5.333333 0
v -18.66667 -5.333333 0
v -18.66667 -4 0
v -17.33333 -4 0
v -18.66667 -5.333333 0
v -20 -5.333333 0
v -20 -4 0
v -18.66667 -4 0
v -10.66667 -6.666667 0
v -12 -6.666667 0
v -12 -5.333333 0
v -10.66667 -5.333333 0
v -12 -6.666667 0
v -13.33333 -6.666667 0
v -13.33333 -5.333333 0
v -12 -5.333333 0
v -13.33333 -6.666667 0
v -14.66667 -6.666667 0
v -14.66667 -5.333333 0
v -13.33333 -5.333333 0
v -14.66667 -6.666667 0
v -16 -6.666667 0
v -16 -5.333333 0
v -14.66667 -5.333333 0
v -16 -6.666667 0
v -17.33333 -6.666667 0
v -17.33333 -5.333333 0
v -16 -5.333333 0
v -17.33333 -6.666667 0
v -18.66667 -6.666667 0
v -18.66667 -5.333333 0
v -17.33333 -5.333333 0
v -18.66667 -6.666667 0
v -20 -6.666667 0
v -20 -5.333333 0
v -18.66667 -5.333333 0
v -10.66667 -8 0
v -12 -8 0
v -12 -6.666667 0
v -10.66667 -6.666667 0
v -12 -8 0
v -13.33333 -8 0
v -13.33333 -6.666667 0
v -12 -6.666667 0
v -13.33333 -8 0
v -14.66667 -8 0
v -14.66667 -6.666667 0
v -13.33333 -6.666667 0
v -14.66667 -8 0
v -16 -8 0
v -16 -6.666667 0
v -14.66667 -6.666667 0
v -16 -8 0
v -17.33333 -8 0
v -17.33333 -6.666667 0
v -16 -6.666667 0
v -17.33333 -8 0
v -18.66667 -8 0
v -18.66667 -6.666667 0
v -17.33333 -6.666667 0
v -18.66667 -8 0
v -20 -8 0
v -20 -6.666667 0
v -18.66667 -6.666667 0
v -18.66667 -10.66667 0
v -20 -10.66667 0
v -20 -9.333334 0
v -18.66667 -9.333334 0
v -18.66667 -12 0
v -20 -12 0
v -20 -10.66667 0
v -18.66667 -10.66667 0
v -1.333333 -20 0
v -2.666667 -20 0
v -2.666667 -18.66667 0
v -1.333333 -18.66667 0
v -2.666667 -20 0
v -4 -20 0
v -4 -18.66667 0
v -2.666667 -18.66667 0
v -22.66667 -20 0
v -24 -20 0
v -24 -18.66667 0
v -22.66667 -18.66667 0
v -24 -20 0
v -25.33333 -20 0
v -25.33333 -18.66667 0
v -24 -18.66667 0
v -1.333333 -21.33333 0
v -2.666667 -21.33333 0
v -2.666667 -20 0
v -1.333333 -20 0
v -2.666667 -21.33333 0
v -4 -21.33333 0
v -4 -20 0
v -2.666667 -20 0
v -10.66667 -21.33333 0
v -12 -21.33333 0
v -12 -20 0
v -10.66667 -20 0
v -12 -21.33333 0
v -13.33333 -21.33333 0
v -13.33333 -20 0
v -12 -20 0
v -13.33333 -21.33333 0
v -14.66667 -21.33333 0
v -14.66667 -20 0
v -13.33333 -20 0
v -14.66667 -21.33333 0
v -16 -21.33333 0
v -16 -20 0
v -14.66667 -20 0
v -22.66667 -21.33333 0
v -24 -21.33333 0
v -24 -20 0
v -22.66667 -20 0
v -24 -21.33333 0
v -25.33333 -21.33333 0
v -25.33333 -20 0
v -24 -20 0
v -6.666667 -22.66667 0
v -8 -22.66667 0
v -8 -21.33333 0
v -6.666667 -21.33333 0
v -10.66667 -22.66667 0
v -12 -22.66667 0
v -12 -21.33333 0
v -10.66667 -21.33333 0
v -13.33333 -22.66667 0
v -14.66667 -22.66667 0
v -14.66667 -21.33333 0
v -13.33333 -21.33333 0
v -14.66667 -22.66667 0
v -16 -22.66667 0
v -16 -21.33333 0
v -14.66667 -21.33333 0
v -17.33333 -22.66667 0
v -18.66667 -22.66667 0
v -18.66667 -21.33333 0
v -17.33333 -21.33333 0
v -21.33333 -22.66667 0
v -22.66667 -22.66667 0
v -22.66667 -21.33333 0
v -21.33333 -21.33333 0
v -4 -24 0
v -5.333333 -24 0
v -5.333333 -22.66667 0
v -4 -22.66667 0
v -8 -24 0
v -9.333334 -24 0
v -9.333334 -22.66667 0
v -8 -22.66667 0
v -9.333334 -24 0
v -10.66667 -24 0
v -10.66667 -22.66667 0
v -9.333334 -22.66667 0
v -10.66667 -24 0
v -12 -24 0
v -12 -22.66667 0
v -10.66667 -22.66667 0
v -12 -24 0
v -13.33333 -24 0
v -13.33333 -22.66667 0
v -12 -22.66667 0
v -13.33333 -24 0
v -14.66667 -24 0
v -14.66667 -22.66667 0
v -13.33333 -22.66667 0
v -14.66667 -24 0
v -16 -24 0
v -16 -22.66667 0
v -14.66667 -22.66667 0
v -16 -24 0
v -17.33333 -24 0
v -17.33333 -22.66667 0
v -16 -22.66667 0
v -6.666667 -25.33333 0
v -8 -25.33333 0
v -8 -24 0
v -6.666667 -24 0
v -8 -25.33333 0
v -9.333334 -25.33333 0
v -9.333334 -24 0
v -8 -24 0
v -9.333334 -25.33333 0
v -10.66667 -25.33333 0
v -10.66667 -24 0
v -9.333334 -24 0
v -10.66667 -25.33333 0
v -12 -25.33333 0
v -12 -24 0
v -10.66667 -24 0
v -12 -25.33333 0
v -13.33333 -25.33333 0
v -13.33333 -24 0
v -12 -24 0
v -13.33333 -25.33333 0
v -14.66667 -25.33333 0
v -14.66667 -24 0
v -13.33333 -24 0
v -14.66667 -25.33333 0
v -16 -25.33333 0
v -16 -24 0
v -14.66667 -24 0
v -16 -25.33333 0
v -17.33333 -25.33333 0
v -17.33333 -24 0
v -16 -24 0
v -17.33333 -25.33333 0
v -18.66667 -25.33333 0
v -18.66667 -24 0
v -17.33333 -24 0
v -6.666667 -26.66667 0
v -8 -26.66667 0
v -8 -25.33333 0
v -6.666667 -25.33333 0
v -8 -26.66667 0
v -9.333334 -26.66667 0
v -9.333334 -25.33333 0
v -8 -25.33333 0
v -9.333334 -26.66667 0
v -10.66667 -26.66667 0
v -10.66667 -25.33333 0
v -9.333334 -25.33333 0
v -10.66667 -26.66667 0
v -12 -26.66667 0
v -12 -25.33333 0
v -10.66667 -25.33333 0
v -12 -26.66667 0
v -13.33333 -26.66667 0
v -13.33333 -25.33333 0
v -12 -25.33333 0
v -13.33333 -26.66667 0
v -14.66667 -26.66667 0
v -14.66667 -25.33333 0
v -13.33333 -25.33333 0
v -14.66667 -26.66667 0
v -16 -26.66667 0
v -16 -25.33333 0
v -14.66667 -25.33333 0
v -16 -26.66667 0
v -17.33333 -26.66667 0
v -17.33333 -25.33333 0
v -16 -25.33333 0
v -17.33333 -26.66667 0
v -18.66667 -26.66667 0
v -18.66667 -25.33333 0
v -17.33333 -25.33333 0

# Texture cooridinates (Count = 84)
vt 0 0.1666667
vt 0.025 0.1666667
vt 0.025 0.1944444
vt 0 0.1944444
vt 0.05 0.1666667
vt 0.05 0.1944444
vt 0.025 0.05555556
vt 0.05 0.05555556
vt 0.05 0.08333334
vt 0.025 0.08333334
vt 0 0.02777778
vt 0.025 0.02777778
vt 0 0.05555556
vt 0 0.08333334
vt 0 0.1388889
vt 0.025 0.1388889
vt 0.05 0.1388889
vt 0.025 0.1111111
vt 0 0.1111111
vt 0.05 0.1111111
vt 0.075 0.1111111
vt 0.075 0.1388889
vt 0 0.75
vt 0.025 0.75
vt 0.025 0.7777778
vt 0 0.7777778
vt 0.05 0.75
vt 0.05 0.7777778
vt 0.225 0.6666667
vt 0.25 0.6666667
vt 0.25 0.6944444
vt 0.225 0.6944444
vt 0.275 0.6666667
vt 0.275 0.6944444
vt 0.1 0.9444444
vt 0.125 0.9444444
vt 0.125 0.9722222
vt 0.1 0.9722222
vt 0.15 0.9444444
vt 0.15 0.9722222
vt 0.225 0.6388889
vt 0.25 0.6388889
vt 0.275 0.6388889
vt 0.05 0.8055556
vt 0.075 0.8055556
vt 0.075 0.8333333
vt 0.05 0.8333333
vt 0.1 0.8055556
vt 0.1 0.8333333
vt 0.125 0.8055556
vt 0.125 0.8333333
vt 0.1 0.9166667
vt 0.125 0.9166667
vt 0.15 0.9166667
vt 0.075 0.6666667
vt 0.1 0.6666667
vt 0.1 0.6944444
vt 0.075 0.6944444
vt 0.1 0.7222222
vt 0.075 0.7222222
vt 0 0.9444444
vt 0.025 0.9444444
vt 0.025 0.9722222
vt 0 0.9722222
vt 0.05 0.6944444
vt 0.05 0.7222222
vt 0.05 0.6388889
vt 0.075 0.6388889
vt 0.05 0.6666667
vt 0.075 0.7777778
vt 0.1 0.7777778
vt 0.125 0.5277778
vt 0.15 0.5277778
vt 0.15 0.5555556
vt 0.125 0.5555556
vt 0.175 0.5277778
vt 0.175 0.5555556
vt 0.1 0.75
vt 0.075 0.75
vt 0.075 0.9444444
vt 0.075 0.9722222
vt 0.125 0.5
vt 0.15 0.5
vt 0.175 0.5

# Normal
vn 0 0 -1

# Mesh description
g Juego_RPG_Mapa3_mesh_0004

# Faces
f 1/1/1 2/2/1 3/3/1 4/4/1
f 5/2/1 6/5/1 7/6/1 8/3/1
f 9/2/1 10/5/1 11/6/1 12/3/1
f 13/1/1 14/2/1 15/3/1 16/4/1
f 17/2/1 18/5/1 19/6/1 20/3/1
f 21/2/1 22/5/1 23/6/1 24/3/1
f 25/7/1 26/8/1 27/9/1 28/10/1
f 29/11/1 30/12/1 31/7/1 32/13/1
f 33/11/1 34/12/1 35/7/1 36/13/1
f 37/13/1 38/7/1 39/10/1 40/14/1
f 41/15/1 42/16/1 43/2/1 44/1/1
f 45/16/1 46/17/1 47/5/1 48/2/1
f 49/16/1 50/17/1 51/5/1 52/2/1
f 53/16/1 54/17/1 55/5/1 56/2/1
f 57/11/1 58/12/1 59/7/1 60/13/1
f 61/11/1 62/12/1 63/7/1 64/13/1
f 65/14/1 66/10/1 67/18/1 68/19/1
f 69/19/1 70/18/1 71/16/1 72/15/1
f 73/18/1 74/20/1 75/17/1 76/16/1
f 77/18/1 78/20/1 79/17/1 80/16/1
f 81/18/1 82/20/1 83/17/1 84/16/1
f 85/10/1 86/9/1 87/20/1 88/18/1
f 89/14/1 90/10/1 91/18/1 92/19/1
f 93/20/1 94/21/1 95/22/1 96/17/1
f 97/23/1 98/24/1 99/25/1 100/26/1
f 101/24/1 102/27/1 103/28/1 104/25/1
f 105/29/1 106/30/1 107/31/1 108/32/1
f 109/30/1 110/33/1 111/34/1 112/31/1
f 113/35/1 114/36/1 115/37/1 116/38/1
f 117/36/1 118/39/1 119/40/1 120/37/1
f 121/41/1 122/42/1 123/30/1 124/29/1
f 125/42/1 126/43/1 127/33/1 128/30/1
f 129/44/1 130/45/1 131/46/1 132/47/1
f 133/45/1 134/48/1 135/49/1 136/46/1
f 137/45/1 138/48/1 139/49/1 140/46/1
f 141/48/1 142/50/1 143/51/1 144/49/1
f 145/52/1 146/53/1 147/36/1 148/35/1
f 149/53/1 150/54/1 151/39/1 152/36/1
f 153/55/1 154/56/1 155/57/1 156/58/1
f 157/58/1 158/57/1 159/59/1 160/60/1
f 161/61/1 162/62/1 163/63/1 164/64/1
f 165/65/1 166/58/1 167/60/1 168/66/1
f 169/55/1 170/56/1 171/57/1 172/58/1
f 173/67/1 174/68/1 175/55/1 176/69/1
f 177/55/1 178/56/1 179/57/1 180/58/1
f 181/44/1 182/45/1 183/46/1 184/47/1
f 185/58/1 186/57/1 187/59/1 188/60/1
f 189/70/1 190/71/1 191/48/1 192/45/1
f 193/70/1 194/71/1 195/48/1 196/45/1
f 197/70/1 198/71/1 199/48/1 200/45/1
f 201/70/1 202/71/1 203/48/1 204/45/1
f 205/65/1 206/58/1 207/60/1 208/66/1
f 209/72/1 210/73/1 211/74/1 212/75/1
f 213/73/1 214/76/1 215/77/1 216/74/1
f 217/60/1 218/59/1 219/78/1 220/79/1
f 221/70/1 222/71/1 223/48/1 224/45/1
f 225/80/1 226/35/1 227/38/1 228/81/1
f 229/70/1 230/71/1 231/48/1 232/45/1
f 233/66/1 234/60/1 235/79/1 236/27/1
f 237/72/1 238/73/1 239/74/1 240/75/1
f 241/73/1 242/76/1 243/77/1 244/74/1
f 245/82/1 246/83/1 247/73/1 248/72/1
f 249/83/1 250/84/1 251/76/1 252/73/1
f 253/58/1 254/57/1 255/59/1 256/60/1
f 257/61/1 258/62/1 259/63/1 260/64/1
f 261/70/1 262/71/1 263/48/1 264/45/1
f 265/70/1 266/71/1 267/48/1 268/45/1
f 269/65/1 270/58/1 271/60/1 272/66/1
f 273/82/1 274/83/1 275/73/1 276/72/1
f 277/83/1 278/84/1 279/76/1 280/73/1

