# Tiled2Unity generated file. Do not modify by hand.
# Wavefront file for 'Tower_Defender_mesh_0002.obj'

# Vertices (Count = 20)
v -1 -1 0
v -2 -1 0
v -2 0 0
v -1 0 0
v -1 -4 0
v -2 -4 0
v -2 -3 0
v -1 -3 0
v -2 -5 0
v -3 -5 0
v -3 -4 0
v -2 -4 0
v -1 -6 0
v -2 -6 0
v -2 -5 0
v -1 -5 0
v -17 -9 0
v -18 -9 0
v -18 -8 0
v -17 -8 0

# Texture cooridinates (Count = 8)
vt 0.8260869 0.5384616
vt 0.8695652 0.5384616
vt 0.8695652 0.6153846
vt 0.8260869 0.6153846
vt 0.6521739 0.5384616
vt 0.6956522 0.5384616
vt 0.6956522 0.6153846
vt 0.6521739 0.6153846

# Normal
vn 0 0 -1

# Mesh description
g Tower_Defender_mesh_0002

# Faces
f 1/1/1 2/2/1 3/3/1 4/4/1
f 5/5/1 6/6/1 7/7/1 8/8/1
f 9/1/1 10/2/1 11/3/1 12/4/1
f 13/1/1 14/2/1 15/3/1 16/4/1
f 17/5/1 18/6/1 19/7/1 20/8/1

