# Tiled2Unity generated file. Do not modify by hand.
# Wavefront file for 'Scenario_mesh_0005.obj'

# Vertices (Count = 24)
v 0 -8 0
v -1 -8 0
v -1 -7 0
v 0 -7 0
v -1 -8 0
v -2 -8 0
v -2 -7 0
v -1 -7 0
v -2 -8 0
v -3 -8 0
v -3 -7 0
v -2 -7 0
v -16 -8 0
v -17 -8 0
v -17 -7 0
v -16 -7 0
v -17 -8 0
v -18 -8 0
v -18 -7 0
v -17 -7 0
v -19 -8 0
v -20 -8 0
v -20 -7 0
v -19 -7 0

# Texture cooridinates (Count = 8)
vt 0.5679191 0.966763
vt 0.5982659 0.966763
vt 0.5982659 0.9971098
vt 0.5679191 0.9971098
vt 0.5346821 0.933526
vt 0.5650289 0.933526
vt 0.5650289 0.9638728
vt 0.5346821 0.9638728

# Normal
vn 0 0 -1

# Mesh description
g Scenario_mesh_0005

# Faces
f 1/1/1 2/2/1 3/3/1 4/4/1
f 5/5/1 6/6/1 7/7/1 8/8/1
f 9/1/1 10/2/1 11/3/1 12/4/1
f 13/1/1 14/2/1 15/3/1 16/4/1
f 17/5/1 18/6/1 19/7/1 20/8/1
f 21/1/1 22/2/1 23/3/1 24/4/1

