# Tiled2Unity generated file. Do not modify by hand.
# Wavefront file for 'Scenario_mesh_0003.obj'

# Vertices (Count = 36)
v -18 -4 0
v -19 -4 0
v -19 -3 0
v -18 -3 0
v -17 -5 0
v -18 -5 0
v -18 -4 0
v -17 -4 0
v -18 -5 0
v -19 -5 0
v -19 -4 0
v -18 -4 0
v -19 -5 0
v -20 -5 0
v -20 -4 0
v -19 -4 0
v -17 -6 0
v -18 -6 0
v -18 -5 0
v -17 -5 0
v -18 -6 0
v -19 -6 0
v -19 -5 0
v -18 -5 0
v -19 -6 0
v -20 -6 0
v -20 -5 0
v -19 -5 0
v -18 -7 0
v -19 -7 0
v -19 -6 0
v -18 -6 0
v -18 -8 0
v -19 -8 0
v -19 -7 0
v -18 -7 0

# Texture cooridinates (Count = 32)
vt 0.002890173 0.2687861
vt 0.033237 0.2687861
vt 0.033237 0.2991329
vt 0.002890173 0.2991329
vt 0.2687861 0.2687861
vt 0.2991329 0.2687861
vt 0.2991329 0.2991329
vt 0.2687861 0.2991329
vt 0.3020231 0.2355491
vt 0.33237 0.2355491
vt 0.33237 0.265896
vt 0.3020231 0.265896
vt 0.3352601 0.2687861
vt 0.3656069 0.2687861
vt 0.3656069 0.2991329
vt 0.3352601 0.2991329
vt 0.2687861 0.2355491
vt 0.2991329 0.2355491
vt 0.2991329 0.265896
vt 0.2687861 0.265896
vt 0.3352601 0.2355491
vt 0.3656069 0.2355491
vt 0.3656069 0.265896
vt 0.3352601 0.265896
vt 0.1026012 0.2687861
vt 0.132948 0.2687861
vt 0.132948 0.2991329
vt 0.1026012 0.2991329
vt 0.03612717 0.2355491
vt 0.06647399 0.2355491
vt 0.06647399 0.265896
vt 0.03612717 0.265896

# Normal
vn 0 0 -1

# Mesh description
g Scenario_mesh_0003

# Faces
f 1/1/1 2/2/1 3/3/1 4/4/1
f 5/5/1 6/6/1 7/7/1 8/8/1
f 9/9/1 10/10/1 11/11/1 12/12/1
f 13/13/1 14/14/1 15/15/1 16/16/1
f 17/17/1 18/18/1 19/19/1 20/20/1
f 21/9/1 22/10/1 23/11/1 24/12/1
f 25/21/1 26/22/1 27/23/1 28/24/1
f 29/25/1 30/26/1 31/27/1 32/28/1
f 33/29/1 34/30/1 35/31/1 36/32/1

