# Tiled2Unity generated file. Do not modify by hand.
# Wavefront file for 'Juego_RPG_Mapa2_mesh_0003.obj'

# Vertices (Count = 20)
v -9 -4 0
v -10 -4 0
v -10 -3 0
v -9 -3 0
v -8 -9 0
v -9 -9 0
v -9 -8 0
v -8 -8 0
v -9 -9 0
v -10 -9 0
v -10 -8 0
v -9 -8 0
v -8 -10 0
v -9 -10 0
v -9 -9 0
v -8 -9 0
v -9 -10 0
v -10 -10 0
v -10 -9 0
v -9 -9 0

# Texture cooridinates (Count = 13)
vt 0.05 0.5833333
vt 0.075 0.5833333
vt 0.075 0.6111111
vt 0.05 0.6111111
vt 0.125 0.5277778
vt 0.15 0.5277778
vt 0.15 0.5555556
vt 0.125 0.5555556
vt 0.175 0.5277778
vt 0.175 0.5555556
vt 0.125 0.5
vt 0.15 0.5
vt 0.175 0.5

# Normal
vn 0 0 -1

# Mesh description
g Juego_RPG_Mapa2_mesh_0003

# Faces
f 1/1/1 2/2/1 3/3/1 4/4/1
f 5/5/1 6/6/1 7/7/1 8/8/1
f 9/6/1 10/9/1 11/10/1 12/7/1
f 13/11/1 14/12/1 15/6/1 16/5/1
f 17/12/1 18/13/1 19/9/1 20/6/1

