# Tiled2Unity generated file. Do not modify by hand.
# Wavefront file for 'Juego_RPG_Mapa4_mesh_0004.obj'

# Vertices (Count = 48)
v -4.8 -10.4 0
v -5.6 -10.4 0
v -5.6 -9.6 0
v -4.8 -9.6 0
v -5.6 -10.4 0
v -6.4 -10.4 0
v -6.4 -9.6 0
v -5.6 -9.6 0
v -6.4 -10.4 0
v -7.2 -10.4 0
v -7.2 -9.6 0
v -6.4 -9.6 0
v -7.2 -10.4 0
v -8 -10.4 0
v -8 -9.6 0
v -7.2 -9.6 0
v -4.8 -11.2 0
v -5.6 -11.2 0
v -5.6 -10.4 0
v -4.8 -10.4 0
v -5.6 -11.2 0
v -6.4 -11.2 0
v -6.4 -10.4 0
v -5.6 -10.4 0
v -6.4 -11.2 0
v -7.2 -11.2 0
v -7.2 -10.4 0
v -6.4 -10.4 0
v -7.2 -11.2 0
v -8 -11.2 0
v -8 -10.4 0
v -7.2 -10.4 0
v -4.8 -12 0
v -5.6 -12 0
v -5.6 -11.2 0
v -4.8 -11.2 0
v -5.6 -12 0
v -6.4 -12 0
v -6.4 -11.2 0
v -5.6 -11.2 0
v -6.4 -12 0
v -7.2 -12 0
v -7.2 -11.2 0
v -6.4 -11.2 0
v -7.2 -12 0
v -8 -12 0
v -8 -11.2 0
v -7.2 -11.2 0

# Texture cooridinates (Count = 20)
vt 0.6 0.1111111
vt 0.625 0.1111111
vt 0.625 0.1388889
vt 0.6 0.1388889
vt 0.65 0.1111111
vt 0.65 0.1388889
vt 0.675 0.1111111
vt 0.675 0.1388889
vt 0.7 0.1111111
vt 0.7 0.1388889
vt 0.6 0.08333334
vt 0.625 0.08333334
vt 0.65 0.08333334
vt 0.675 0.08333334
vt 0.7 0.08333334
vt 0.6 0.05555556
vt 0.625 0.05555556
vt 0.65 0.05555556
vt 0.675 0.05555556
vt 0.7 0.05555556

# Normal
vn 0 0 -1

# Mesh description
g Juego_RPG_Mapa4_mesh_0004

# Faces
f 1/1/1 2/2/1 3/3/1 4/4/1
f 5/2/1 6/5/1 7/6/1 8/3/1
f 9/5/1 10/7/1 11/8/1 12/6/1
f 13/7/1 14/9/1 15/10/1 16/8/1
f 17/11/1 18/12/1 19/2/1 20/1/1
f 21/13/1 22/14/1 23/7/1 24/5/1
f 25/13/1 26/14/1 27/7/1 28/5/1
f 29/14/1 30/15/1 31/9/1 32/7/1
f 33/16/1 34/17/1 35/12/1 36/11/1
f 37/17/1 38/18/1 39/13/1 40/12/1
f 41/18/1 42/19/1 43/14/1 44/13/1
f 45/19/1 46/20/1 47/15/1 48/14/1

