# Tiled2Unity generated file. Do not modify by hand.
# Wavefront file for 'Juego_RPG_Mapa4_mesh_0003.obj'

# Vertices (Count = 152)
v -3.2 -0.8 0
v -4 -0.8 0
v -4 0 0
v -3.2 0 0
v -4 -0.8 0
v -4.8 -0.8 0
v -4.8 0 0
v -4 0 0
v -7.2 -0.8 0
v -8 -0.8 0
v -8 0 0
v -7.2 0 0
v -8 -0.8 0
v -8.8 -0.8 0
v -8.8 0 0
v -8 0 0
v -3.2 -1.6 0
v -4 -1.6 0
v -4 -0.8 0
v -3.2 -0.8 0
v -4 -1.6 0
v -4.8 -1.6 0
v -4.8 -0.8 0
v -4 -0.8 0
v -7.2 -1.6 0
v -8 -1.6 0
v -8 -0.8 0
v -7.2 -0.8 0
v -8 -1.6 0
v -8.8 -1.6 0
v -8.8 -0.8 0
v -8 -0.8 0
v -7.2 -2.4 0
v -8 -2.4 0
v -8 -1.6 0
v -7.2 -1.6 0
v -8 -2.4 0
v -8.8 -2.4 0
v -8.8 -1.6 0
v -8 -1.6 0
v -8.8 -2.4 0
v -9.6 -2.4 0
v -9.6 -1.6 0
v -8.8 -1.6 0
v -9.6 -3.2 0
v -10.4 -3.2 0
v -10.4 -2.4 0
v -9.6 -2.4 0
v -9.6 -4 0
v -10.4 -4 0
v -10.4 -3.2 0
v -9.6 -3.2 0
v -2.4 -4.8 0
v -3.2 -4.8 0
v -3.2 -4 0
v -2.4 -4 0
v -3.2 -4.8 0
v -4 -4.8 0
v -4 -4 0
v -3.2 -4 0
v -7.2 -4.8 0
v -8 -4.8 0
v -8 -4 0
v -7.2 -4 0
v -8 -4.8 0
v -8.8 -4.8 0
v -8.8 -4 0
v -8 -4 0
v -2.4 -5.6 0
v -3.2 -5.6 0
v -3.2 -4.8 0
v -2.4 -4.8 0
v -3.2 -5.6 0
v -4 -5.6 0
v -4 -4.8 0
v -3.2 -4.8 0
v -7.2 -5.6 0
v -8 -5.6 0
v -8 -4.8 0
v -7.2 -4.8 0
v -8 -5.6 0
v -8.8 -5.6 0
v -8.8 -4.8 0
v -8 -4.8 0
v -2.4 -7.2 0
v -3.2 -7.2 0
v -3.2 -6.4 0
v -2.4 -6.4 0
v -3.2 -7.2 0
v -4 -7.2 0
v -4 -6.4 0
v -3.2 -6.4 0
v -2.4 -8 0
v -3.2 -8 0
v -3.2 -7.2 0
v -2.4 -7.2 0
v -3.2 -8 0
v -4 -8 0
v -4 -7.2 0
v -3.2 -7.2 0
v -8.8 -8.8 0
v -9.6 -8.8 0
v -9.6 -8 0
v -8.8 -8 0
v -9.6 -8.8 0
v -10.4 -8.8 0
v -10.4 -8 0
v -9.6 -8 0
v -8.8 -9.6 0
v -9.6 -9.6 0
v -9.6 -8.8 0
v -8.8 -8.8 0
v -9.6 -9.6 0
v -10.4 -9.6 0
v -10.4 -8.8 0
v -9.6 -8.8 0
v -2.4 -11.2 0
v -3.2 -11.2 0
v -3.2 -10.4 0
v -2.4 -10.4 0
v -3.2 -11.2 0
v -4 -11.2 0
v -4 -10.4 0
v -3.2 -10.4 0
v -4 -11.2 0
v -4.8 -11.2 0
v -4.8 -10.4 0
v -4 -10.4 0
v -8 -11.2 0
v -8.8 -11.2 0
v -8.8 -10.4 0
v -8 -10.4 0
v -8.8 -11.2 0
v -9.6 -11.2 0
v -9.6 -10.4 0
v -8.8 -10.4 0
v -9.6 -11.2 0
v -10.4 -11.2 0
v -10.4 -10.4 0
v -9.6 -10.4 0
v -8 -12 0
v -8.8 -12 0
v -8.8 -11.2 0
v -8 -11.2 0
v -8.8 -12 0
v -9.6 -12 0
v -9.6 -11.2 0
v -8.8 -11.2 0
v -9.6 -12 0
v -10.4 -12 0
v -10.4 -11.2 0
v -9.6 -11.2 0

# Texture cooridinates (Count = 83)
vt 0.825 0.8888889
vt 0.85 0.8888889
vt 0.85 0.9166667
vt 0.825 0.9166667
vt 0.875 0.8888889
vt 0.875 0.9166667
vt 0.9 0.8888889
vt 0.9 0.9166667
vt 0.925 0.8888889
vt 0.925 0.9166667
vt 0.825 0.8611111
vt 0.85 0.8611111
vt 0.875 0.8611111
vt 0.9 0.8611111
vt 0.925 0.8611111
vt 0.075 0.8333333
vt 0.1 0.8333333
vt 0.1 0.8611111
vt 0.075 0.8611111
vt 0.125 0.8333333
vt 0.125 0.8611111
vt 0.15 0.8333333
vt 0.15 0.8611111
vt 0.825 0.9722222
vt 0.85 0.9722222
vt 0.85 1
vt 0.825 1
vt 0.825 0.9444444
vt 0.85 0.9444444
vt 0.3 0.3333333
vt 0.325 0.3333333
vt 0.325 0.3611111
vt 0.3 0.3611111
vt 0.35 0.3333333
vt 0.35 0.3611111
vt 0.775 0.8888889
vt 0.8 0.8888889
vt 0.8 0.9166667
vt 0.775 0.9166667
vt 0.3 0.3055556
vt 0.325 0.3055556
vt 0.35 0.3055556
vt 0.775 0.8611111
vt 0.8 0.8611111
vt 0.25 0.3055556
vt 0.275 0.3055556
vt 0.275 0.3333333
vt 0.25 0.3333333
vt 0.25 0.3611111
vt 0.275 0.3611111
vt 0.275 0.3888889
vt 0.25 0.3888889
vt 0.25 0.2777778
vt 0.275 0.2777778
vt 0.525 0.4166667
vt 0.55 0.4166667
vt 0.55 0.4444444
vt 0.525 0.4444444
vt 0.575 0.4166667
vt 0.575 0.4444444
vt 0.525 0.3888889
vt 0.55 0.3888889
vt 0.575 0.3888889
vt 0.675 0.75
vt 0.7 0.75
vt 0.7 0.7777778
vt 0.675 0.7777778
vt 0.725 0.75
vt 0.725 0.7777778
vt 0.75 0.75
vt 0.75 0.7777778
vt 0.55 0.7777778
vt 0.575 0.7777778
vt 0.575 0.8055556
vt 0.55 0.8055556
vt 0.6 0.7777778
vt 0.6 0.8055556
vt 0.625 0.7777778
vt 0.625 0.8055556
vt 0.55 0.75
vt 0.575 0.75
vt 0.6 0.75
vt 0.625 0.75

# Normal
vn 0 0 -1

# Mesh description
g Juego_RPG_Mapa4_mesh_0003

# Faces
f 1/1/1 2/2/1 3/3/1 4/4/1
f 5/2/1 6/5/1 7/6/1 8/3/1
f 9/5/1 10/7/1 11/8/1 12/6/1
f 13/7/1 14/9/1 15/10/1 16/8/1
f 17/11/1 18/12/1 19/2/1 20/1/1
f 21/12/1 22/13/1 23/5/1 24/2/1
f 25/13/1 26/14/1 27/7/1 28/5/1
f 29/14/1 30/15/1 31/9/1 32/7/1
f 33/16/1 34/17/1 35/18/1 36/19/1
f 37/17/1 38/20/1 39/21/1 40/18/1
f 41/20/1 42/22/1 43/23/1 44/21/1
f 45/24/1 46/25/1 47/26/1 48/27/1
f 49/28/1 50/29/1 51/25/1 52/24/1
f 53/30/1 54/31/1 55/32/1 56/33/1
f 57/31/1 58/34/1 59/35/1 60/32/1
f 61/36/1 62/37/1 63/38/1 64/39/1
f 65/37/1 66/1/1 67/4/1 68/38/1
f 69/40/1 70/41/1 71/31/1 72/30/1
f 73/41/1 74/42/1 75/34/1 76/31/1
f 77/43/1 78/44/1 79/37/1 80/36/1
f 81/44/1 82/11/1 83/1/1 84/37/1
f 85/45/1 86/46/1 87/47/1 88/48/1
f 89/49/1 90/50/1 91/51/1 92/52/1
f 93/53/1 94/54/1 95/46/1 96/45/1
f 97/48/1 98/47/1 99/50/1 100/49/1
f 101/55/1 102/56/1 103/57/1 104/58/1
f 105/56/1 106/59/1 107/60/1 108/57/1
f 109/61/1 110/62/1 111/56/1 112/55/1
f 113/62/1 114/63/1 115/59/1 116/56/1
f 117/64/1 118/65/1 119/66/1 120/67/1
f 121/65/1 122/68/1 123/69/1 124/66/1
f 125/68/1 126/70/1 127/71/1 128/69/1
f 129/72/1 130/73/1 131/74/1 132/75/1
f 133/73/1 134/76/1 135/77/1 136/74/1
f 137/76/1 138/78/1 139/79/1 140/77/1
f 141/80/1 142/81/1 143/73/1 144/72/1
f 145/81/1 146/82/1 147/76/1 148/73/1
f 149/82/1 150/83/1 151/78/1 152/76/1

